<?xml version="1.0" encoding="UTF-8"?>
<svg width="256px" height="256px" viewBox="0 0 256 256" version="1.1" xmlns="http://www.w3.org/2000/svg" xmlns:xlink="http://www.w3.org/1999/xlink">
    <!-- Generator: Sketch 64 (93537) - https://sketch.com -->
    <title>logo 生而不庸 圆角</title>
    <desc>Created with Sketch.</desc>
    <g id="logo-生而不庸-圆角" stroke="none" stroke-width="1" fill="none" fill-rule="evenodd">
        <rect id="矩形" fill="#FFA502" x="0" y="0" width="256" height="256" rx="16"></rect>
        <path d="M41.5261438,49.8766968 L66.2363834,49.8766968 L66.2363834,72.7138009 L33.3671024,72.7138009 L33.3671024,84.4819005 L66.2363834,84.4819005 L66.2363834,109.882353 L19.2636166,109.882353 L19.2636166,122 L123,122 L123,109.882353 L78.4749455,109.882353 L78.4749455,84.4819005 L113.20915,84.4819005 L113.20915,72.7138009 L78.4749455,72.7138009 L78.4749455,49.8766968 L115.423747,49.8766968 L115.423747,38.1085973 L78.4749455,38.1085973 L78.4749455,19 L66.2363834,19 L66.2363834,38.1085973 L45.9553377,38.1085973 C47.3540305,33.6809955 48.5196078,28.9038462 49.5686275,23.8936652 L37.0969499,21.5633484 C33.4836601,40.0893665 26.4901961,54.770362 16,65.7228507 L24.0424837,75.8597285 C31.1525054,68.8687783 36.9803922,60.1300905 41.5261438,49.8766968 Z M134,24 L134,35.806713 L177.769401,35.806713 C176.838137,40.1319444 175.441242,44.4571759 173.578714,48.6655093 L141.217295,48.6655093 L141.217295,124.883102 L153.556541,124.883102 L153.556541,60.4722222 L167.525499,60.4722222 L167.525499,121.259259 L179.282705,121.259259 L179.282705,60.4722222 L193.717295,60.4722222 L193.717295,121.259259 L205.474501,121.259259 L205.474501,60.4722222 L220.840355,60.4722222 L220.840355,108.166667 C220.840355,111.439815 219.559867,113.076389 217.231707,113.076389 L207.569845,112.608796 L210.829268,125 L221.305987,125 C229.105322,125 233.063193,120.324074 233.063193,110.972222 L233.063193,48.6655093 L188.129712,48.6655093 C189.759424,44.5740741 191.156319,40.2488426 192.320399,35.806713 L239,35.806713 L239,24 L134,24 Z M19.7142857,134 L19.7142857,145.884615 L68.9285714,145.884615 C58.7142857,165.925339 41.0714286,182.936652 16,197.151584 L24.0089286,207.754525 C39.7946429,198.200226 53.0267857,187.480769 63.5892857,175.596154 L63.5892857,237 L76.125,237 L76.125,158.468326 C78.5625,154.390271 80.7678571,150.195701 82.7410714,145.884615 L120,145.884615 L120,134 L19.7142857,134 Z M91.6376404,166 L83,174.372093 C96.5898876,185.651163 107.185393,196.232558 114.55618,206 L124,196.348837 C115.247191,186.232558 104.421348,176.116279 91.6376404,166 Z M222.12843,236.418356 C229.458836,236.418356 233.182217,233.277481 233.182217,227.11206 L233.182217,188.490928 L200.602634,188.490928 L200.602634,184.303095 L229.691548,184.303095 L229.691548,172.902882 L239,172.902882 L239,161.735326 L229.691548,161.735326 L229.691548,150.451441 L200.602634,150.451441 L200.602634,146.612593 L237.254665,146.612593 L237.254665,136.491996 L198.740944,136.491996 C197.577387,133.351121 196.297475,130.559232 195.133919,128 L182.683864,130.093917 C184.080132,132.071505 185.360044,134.165422 186.5236,136.491996 L143.006586,136.491996 L143.006586,182.674493 C142.657519,202.334045 139.283205,217.689434 133,228.740662 L142.075741,236.767343 C149.987925,223.156884 154.176729,205.125934 154.642151,182.674493 L154.642151,146.612593 L189.432492,146.612593 L189.432492,150.451441 L162.903403,150.451441 L162.903403,159.292423 L189.432492,159.292423 L189.432492,163.13127 L157.08562,163.13127 L157.08562,171.506937 L189.432492,171.506937 L189.432492,175.462113 L162.787047,175.462113 L162.787047,184.303095 L189.432492,184.303095 L189.432492,188.490928 L159.180022,188.490928 L159.180022,237 L170.582876,237 L170.582876,222.226254 L189.432492,222.226254 L189.432492,235.138741 L200.602634,235.138741 L200.602634,222.226254 L221.895719,222.226254 L221.895719,224.552828 C221.895719,226.414088 220.848518,227.461046 218.986828,227.461046 L210.725576,227.11206 L213.285401,236.418356 L222.12843,236.418356 Z M170,213 L170,209 L189,209 L189,213 L170,213 Z M200,213 L200,209 L221,209 L221,213 L200,213 Z M170,201 L170,197 L189,197 L189,201 L170,201 Z M200,201 L200,197 L221,197 L221,201 L200,201 Z M200,159 L218,159 L218,163 L200,163 L200,159 Z M200,171 L218,171 L218,175 L200,175 L200,171 Z" id="生而不庸" fill="#FFFFFF" fill-rule="nonzero"></path>
    </g>
</svg>